# xmcd
#
# Track frame offsets: 
#        150
#        10585
#        24033
#        40778
#        51968
#        72981
#        87663
#        106559
#        116559
#        132115
#        147675
#        163921
#
# Disc length: 2462 seconds
#
# Revision: 0
# Processed by: cddbd v1.5.2PL0 Copyright (c) Steve Scherf et al.
# Submitted via: ExactAudioCopyFreeDBPlugin 1.0
#
DISCID=9b099c0c
DTITLE=Reverend Beat-Man and the New Wave - Blues Trash
DYEAR=2018
DGENRE=Blues
TTITLE0=I have enough
TTITLE1=I'm not gonna tell you
TTITLE2=Today is a beautiful day
TTITLE3=I'll do it for you
TTITLE4=The white wolf is back in town
TTITLE5=But I love you
TTITLE6=You are on top
TTITLE7=If I knew
TTITLE8=Then we all gonna die
TTITLE9=Love is simply a dream
TTITLE10=Looking right through
TTITLE11=Lass uns Liebe machen
EXTD=
EXTT0=
EXTT1=
EXTT2=
EXTT3=
EXTT4=
EXTT5=
EXTT6=
EXTT7=
EXTT8=
EXTT9=
EXTT10=
EXTT11=
PLAYORDER=
